<svg id="visual" viewBox="0 0 900 600" width="900" height="600" xmlns="http://www.w3.org/2000/svg" xmlns:xlink="http://www.w3.org/1999/xlink" version="1.1"><rect x="0" y="0" width="900" height="600" fill="#1e1e1e"></rect><path d="M0 514L6 515.5C12 517 24 520 36 522.2C48 524.3 60 525.7 72 532C84 538.3 96 549.7 108 550.2C120 550.7 132 540.3 144 538C156 535.7 168 541.3 180 542.3C192 543.3 204 539.7 216 540.2C228 540.7 240 545.3 252 542.7C264 540 276 530 288 521.5C300 513 312 506 324 506.2C336 506.3 348 513.7 360 514.2C372 514.7 384 508.3 396 506.8C408 505.3 420 508.7 432 520.5C444 532.3 456 552.7 468 550.8C480 549 492 525 504 525.7C516 526.3 528 551.7 540 556.2C552 560.7 564 544.3 576 542.5C588 540.7 600 553.3 612 559.8C624 566.3 636 566.7 648 564.2C660 561.7 672 556.3 684 545.2C696 534 708 517 720 515C732 513 744 526 756 527.2C768 528.3 780 517.7 792 518.5C804 519.3 816 531.7 828 541C840 550.3 852 556.7 864 559.3C876 562 888 561 894 560.5L900 560L900 601L894 601C888 601 876 601 864 601C852 601 840 601 828 601C816 601 804 601 792 601C780 601 768 601 756 601C744 601 732 601 720 601C708 601 696 601 684 601C672 601 660 601 648 601C636 601 624 601 612 601C600 601 588 601 576 601C564 601 552 601 540 601C528 601 516 601 504 601C492 601 480 601 468 601C456 601 444 601 432 601C420 601 408 601 396 601C384 601 372 601 360 601C348 601 336 601 324 601C312 601 300 601 288 601C276 601 264 601 252 601C240 601 228 601 216 601C204 601 192 601 180 601C168 601 156 601 144 601C132 601 120 601 108 601C96 601 84 601 72 601C60 601 48 601 36 601C24 601 12 601 6 601L0 601Z" fill="#a78bfa" stroke-linecap="round" stroke-linejoin="miter"></path></svg>